<mxfile host="65bd71144e">
    <diagram id="6GtpgPVb9rbRwgWwzKAN" name="第 1 页">
        <mxGraphModel dx="1138" dy="729" grid="1" gridSize="10" guides="1" tooltips="1" connect="1" arrows="1" fold="1" page="1" pageScale="1" pageWidth="1169" pageHeight="827" math="0" shadow="0">
            <root>
                <mxCell id="0"/>
                <mxCell id="1" parent="0"/>
                <mxCell id="140" value="阿里云 RDS Master 节点" style="swimlane;" parent="1" vertex="1">
                    <mxGeometry x="20" y="1020" width="540" height="450" as="geometry"/>
                </mxCell>
                <mxCell id="114" value="物理机" style="rounded=0;whiteSpace=wrap;html=1;fillColor=#666666;fontColor=#FFFFFF;" parent="140" vertex="1">
                    <mxGeometry x="20" y="390" width="500" height="40" as="geometry"/>
                </mxCell>
                <mxCell id="115" value="宿主操作系统 Linux" style="rounded=0;whiteSpace=wrap;html=1;fillColor=#fff2cc;strokeColor=#d6b656;" parent="140" vertex="1">
                    <mxGeometry x="20" y="330" width="500" height="40" as="geometry"/>
                </mxCell>
                <mxCell id="131" value="虚拟机" style="swimlane;horizontal=0;fillColor=#FFB366;" parent="140" vertex="1">
                    <mxGeometry x="20" y="40" width="500" height="150" as="geometry"/>
                </mxCell>
                <mxCell id="124" value="MySQL" style="rounded=0;whiteSpace=wrap;html=1;fillColor=#66B2FF;strokeColor=#000000;fontColor=#FFFFFF;" parent="131" vertex="1">
                    <mxGeometry x="40" y="20" width="440" height="40" as="geometry"/>
                </mxCell>
                <mxCell id="247" value="宿主操作系统 Linux" style="rounded=0;whiteSpace=wrap;html=1;fillColor=#ffe6cc;strokeColor=#d79b00;" parent="131" vertex="1">
                    <mxGeometry x="40" y="80.5" width="440" height="40" as="geometry"/>
                </mxCell>
                <mxCell id="143" value="KVM 虚拟机" style="swimlane;fillColor=#9933FF;strokeColor=#7F00FF;fontColor=#FFFFFF;" parent="140" vertex="1">
                    <mxGeometry x="20" y="210" width="500" height="100" as="geometry"/>
                </mxCell>
                <mxCell id="123" value="虚拟 网络" style="rounded=0;whiteSpace=wrap;html=1;fillColor=#f5f5f5;fontColor=#333333;strokeColor=#666666;" parent="143" vertex="1">
                    <mxGeometry x="20" y="40" width="100" height="40" as="geometry"/>
                </mxCell>
                <mxCell id="144" value="虚拟 CPU" style="rounded=0;whiteSpace=wrap;html=1;fillColor=#dae8fc;strokeColor=#6c8ebf;" parent="143" vertex="1">
                    <mxGeometry x="140" y="40" width="100" height="40" as="geometry"/>
                </mxCell>
                <mxCell id="145" value="虚拟&amp;nbsp; 内存" style="rounded=0;whiteSpace=wrap;html=1;fillColor=#d5e8d4;strokeColor=#82b366;" parent="143" vertex="1">
                    <mxGeometry x="260" y="40" width="100" height="40" as="geometry"/>
                </mxCell>
                <mxCell id="146" value="虚拟&amp;nbsp; 磁盘" style="rounded=0;whiteSpace=wrap;html=1;fillColor=#ffe6cc;strokeColor=#d79b00;" parent="143" vertex="1">
                    <mxGeometry x="380" y="40" width="100" height="40" as="geometry"/>
                </mxCell>
                <mxCell id="173" value="阿里云管理平台" style="swimlane;fillColor=#d80073;fontColor=#ffffff;strokeColor=#A50040;" parent="1" vertex="1">
                    <mxGeometry x="20" y="1490" width="1100" height="100" as="geometry"/>
                </mxCell>
                <mxCell id="174" value="虚拟 交换机" style="rounded=0;whiteSpace=wrap;html=1;fillColor=#f5f5f5;gradientColor=#b3b3b3;strokeColor=#666666;" parent="173" vertex="1">
                    <mxGeometry x="20" y="40" width="120" height="40" as="geometry"/>
                </mxCell>
                <mxCell id="175" value="虚拟机管理" style="rounded=0;whiteSpace=wrap;html=1;fillColor=#dae8fc;gradientColor=#7ea6e0;strokeColor=#6c8ebf;" parent="173" vertex="1">
                    <mxGeometry x="160" y="40" width="120" height="40" as="geometry"/>
                </mxCell>
                <mxCell id="248" value="虚拟机镜像管理" style="rounded=0;whiteSpace=wrap;html=1;fillColor=#d5e8d4;gradientColor=#97d077;strokeColor=#82b366;" parent="173" vertex="1">
                    <mxGeometry x="320" y="40" width="120" height="40" as="geometry"/>
                </mxCell>
                <mxCell id="249" value="日志管理" style="rounded=0;whiteSpace=wrap;html=1;fillColor=#ffcd28;gradientColor=#ffa500;strokeColor=#d79b00;" parent="173" vertex="1">
                    <mxGeometry x="480" y="40" width="120" height="40" as="geometry"/>
                </mxCell>
                <mxCell id="250" value="EIP管理" style="rounded=0;whiteSpace=wrap;html=1;fillColor=#fff2cc;gradientColor=#ffd966;strokeColor=#d6b656;" parent="173" vertex="1">
                    <mxGeometry x="640" y="40" width="120" height="40" as="geometry"/>
                </mxCell>
                <mxCell id="251" value="SLB管理" style="rounded=0;whiteSpace=wrap;html=1;fillColor=#f8cecc;gradientColor=#ea6b66;strokeColor=#b85450;" parent="173" vertex="1">
                    <mxGeometry x="800" y="40" width="120" height="40" as="geometry"/>
                </mxCell>
                <mxCell id="280" value="监控管理" style="rounded=0;whiteSpace=wrap;html=1;fillColor=#e6d0de;gradientColor=#d5739d;strokeColor=#996185;" parent="173" vertex="1">
                    <mxGeometry x="960" y="40" width="120" height="40" as="geometry"/>
                </mxCell>
                <mxCell id="294" value="阿里云 RDS Slave 节点" style="swimlane;" vertex="1" parent="1">
                    <mxGeometry x="580" y="1020" width="540" height="450" as="geometry"/>
                </mxCell>
                <mxCell id="295" value="物理机" style="rounded=0;whiteSpace=wrap;html=1;fillColor=#666666;fontColor=#FFFFFF;" vertex="1" parent="294">
                    <mxGeometry x="20" y="390" width="500" height="40" as="geometry"/>
                </mxCell>
                <mxCell id="296" value="宿主操作系统 Linux" style="rounded=0;whiteSpace=wrap;html=1;fillColor=#fff2cc;strokeColor=#d6b656;" vertex="1" parent="294">
                    <mxGeometry x="20" y="330" width="500" height="40" as="geometry"/>
                </mxCell>
                <mxCell id="297" value="虚拟机" style="swimlane;horizontal=0;fillColor=#FFB366;" vertex="1" parent="294">
                    <mxGeometry x="20" y="40" width="500" height="150" as="geometry"/>
                </mxCell>
                <mxCell id="298" value="MySQL" style="rounded=0;whiteSpace=wrap;html=1;fillColor=#66B2FF;strokeColor=#000000;fontColor=#FFFFFF;" vertex="1" parent="297">
                    <mxGeometry x="40" y="20" width="440" height="40" as="geometry"/>
                </mxCell>
                <mxCell id="299" value="宿主操作系统 Linux" style="rounded=0;whiteSpace=wrap;html=1;fillColor=#ffe6cc;strokeColor=#d79b00;" vertex="1" parent="297">
                    <mxGeometry x="40" y="80.5" width="440" height="40" as="geometry"/>
                </mxCell>
                <mxCell id="300" value="KVM 虚拟机" style="swimlane;fillColor=#9933FF;strokeColor=#7F00FF;fontColor=#FFFFFF;" vertex="1" parent="294">
                    <mxGeometry x="20" y="210" width="500" height="100" as="geometry"/>
                </mxCell>
                <mxCell id="301" value="虚拟 网络" style="rounded=0;whiteSpace=wrap;html=1;fillColor=#f5f5f5;fontColor=#333333;strokeColor=#666666;" vertex="1" parent="300">
                    <mxGeometry x="20" y="40" width="100" height="40" as="geometry"/>
                </mxCell>
                <mxCell id="302" value="虚拟 CPU" style="rounded=0;whiteSpace=wrap;html=1;fillColor=#dae8fc;strokeColor=#6c8ebf;" vertex="1" parent="300">
                    <mxGeometry x="140" y="40" width="100" height="40" as="geometry"/>
                </mxCell>
                <mxCell id="303" value="虚拟&amp;nbsp; 内存" style="rounded=0;whiteSpace=wrap;html=1;fillColor=#d5e8d4;strokeColor=#82b366;" vertex="1" parent="300">
                    <mxGeometry x="260" y="40" width="100" height="40" as="geometry"/>
                </mxCell>
                <mxCell id="304" value="虚拟&amp;nbsp; 磁盘" style="rounded=0;whiteSpace=wrap;html=1;fillColor=#ffe6cc;strokeColor=#d79b00;" vertex="1" parent="300">
                    <mxGeometry x="380" y="40" width="100" height="40" as="geometry"/>
                </mxCell>
                <mxCell id="305" value="RDS 主从分离 Proxy" style="rounded=0;whiteSpace=wrap;html=1;" vertex="1" parent="1">
                    <mxGeometry x="20" y="960" width="1100" height="40" as="geometry"/>
                </mxCell>
                <mxCell id="306" value="MySQL Master 节点" style="swimlane;" vertex="1" parent="1">
                    <mxGeometry x="20" y="470" width="460" height="290" as="geometry"/>
                </mxCell>
                <mxCell id="308" value="Linux 操作系统独占所有资源" style="rounded=0;whiteSpace=wrap;html=1;fillColor=#fff2cc;strokeColor=#d6b656;" vertex="1" parent="306">
                    <mxGeometry x="20" y="110" width="420" height="40" as="geometry"/>
                </mxCell>
                <mxCell id="310" value="MySQL Server" style="rounded=0;whiteSpace=wrap;html=1;fillColor=#66B2FF;strokeColor=#000000;fontColor=#FFFFFF;" vertex="1" parent="306">
                    <mxGeometry x="20" y="50" width="420" height="40" as="geometry"/>
                </mxCell>
                <mxCell id="323" value="物理机" style="swimlane;fillColor=#76608a;strokeColor=#432D57;fontColor=#ffffff;" vertex="1" parent="306">
                    <mxGeometry x="20" y="170" width="420" height="100" as="geometry"/>
                </mxCell>
                <mxCell id="324" value="网络" style="rounded=0;whiteSpace=wrap;html=1;fillColor=#f5f5f5;fontColor=#333333;strokeColor=#666666;" vertex="1" parent="323">
                    <mxGeometry x="20" y="40" width="80" height="40" as="geometry"/>
                </mxCell>
                <mxCell id="325" value="CPU" style="rounded=0;whiteSpace=wrap;html=1;fillColor=#dae8fc;strokeColor=#6c8ebf;" vertex="1" parent="323">
                    <mxGeometry x="120" y="40" width="80" height="40" as="geometry"/>
                </mxCell>
                <mxCell id="326" value="内存" style="rounded=0;whiteSpace=wrap;html=1;fillColor=#d5e8d4;strokeColor=#82b366;" vertex="1" parent="323">
                    <mxGeometry x="220" y="40" width="80" height="40" as="geometry"/>
                </mxCell>
                <mxCell id="327" value="磁盘" style="rounded=0;whiteSpace=wrap;html=1;fillColor=#ffe6cc;strokeColor=#d79b00;" vertex="1" parent="323">
                    <mxGeometry x="320" y="40" width="80" height="40" as="geometry"/>
                </mxCell>
                <mxCell id="342" value="binlog" style="shape=flexArrow;endArrow=classic;html=1;entryX=0;entryY=0.5;entryDx=0;entryDy=0;endWidth=38;endSize=8.67;width=22;fillColor=#b1ddf0;strokeColor=#10739e;labelBackgroundColor=none;" edge="1" parent="1" source="124" target="298">
                    <mxGeometry width="50" height="50" relative="1" as="geometry">
                        <mxPoint x="570" y="1140" as="sourcePoint"/>
                        <mxPoint x="620" y="1090" as="targetPoint"/>
                    </mxGeometry>
                </mxCell>
                <mxCell id="343" value="MySQL Master 节点" style="swimlane;" vertex="1" parent="1">
                    <mxGeometry x="560" y="470" width="460" height="290" as="geometry"/>
                </mxCell>
                <mxCell id="344" value="Linux 操作系统独占所有资源" style="rounded=0;whiteSpace=wrap;html=1;fillColor=#fff2cc;strokeColor=#d6b656;" vertex="1" parent="343">
                    <mxGeometry x="20" y="110" width="420" height="40" as="geometry"/>
                </mxCell>
                <mxCell id="345" value="MySQL Server" style="rounded=0;whiteSpace=wrap;html=1;fillColor=#66B2FF;strokeColor=#000000;fontColor=#FFFFFF;" vertex="1" parent="343">
                    <mxGeometry x="20" y="50" width="420" height="40" as="geometry"/>
                </mxCell>
                <mxCell id="346" value="物理机" style="swimlane;fillColor=#76608a;strokeColor=#432D57;fontColor=#ffffff;" vertex="1" parent="343">
                    <mxGeometry x="20" y="170" width="420" height="100" as="geometry"/>
                </mxCell>
                <mxCell id="347" value="网络" style="rounded=0;whiteSpace=wrap;html=1;fillColor=#f5f5f5;fontColor=#333333;strokeColor=#666666;" vertex="1" parent="346">
                    <mxGeometry x="20" y="40" width="80" height="40" as="geometry"/>
                </mxCell>
                <mxCell id="348" value="CPU" style="rounded=0;whiteSpace=wrap;html=1;fillColor=#dae8fc;strokeColor=#6c8ebf;" vertex="1" parent="346">
                    <mxGeometry x="120" y="40" width="80" height="40" as="geometry"/>
                </mxCell>
                <mxCell id="349" value="内存" style="rounded=0;whiteSpace=wrap;html=1;fillColor=#d5e8d4;strokeColor=#82b366;" vertex="1" parent="346">
                    <mxGeometry x="220" y="40" width="80" height="40" as="geometry"/>
                </mxCell>
                <mxCell id="350" value="磁盘" style="rounded=0;whiteSpace=wrap;html=1;fillColor=#ffe6cc;strokeColor=#d79b00;" vertex="1" parent="346">
                    <mxGeometry x="320" y="40" width="80" height="40" as="geometry"/>
                </mxCell>
                <mxCell id="351" value="binlog" style="shape=flexArrow;endArrow=classic;html=1;fillColor=#e1d5e7;strokeColor=#9673a6;width=22.38095238095238;endSize=4.9523809523809526;labelBackgroundColor=none;" edge="1" parent="1" source="310" target="345">
                    <mxGeometry width="50" height="50" relative="1" as="geometry">
                        <mxPoint x="530" y="700" as="sourcePoint"/>
                        <mxPoint x="580" y="650" as="targetPoint"/>
                    </mxGeometry>
                </mxCell>
            </root>
        </mxGraphModel>
    </diagram>
</mxfile>